inDegrees=no
num_controls=7
num_derivatives=13
num_iterations=161
num_multipliers=7
num_parameters=0
num_slacks=7
num_states=26
objective=4.942555
objective_accelerations=0.639097
objective_balance=0.090908
objective_effort=0.456098
objective_height=3.696951
objective_ligament=0.059502
solver_duration=1727.017860
status=Solve_Succeeded
success=true
DataType=double
version=3
OpenSimVersion=4.4-2022-07-23-0e9fedc
endheader
time	/jointset/ground_pelvis/pelvis_tilt/value	/jointset/ground_pelvis/pelvis_tx/value	/jointset/ground_pelvis/pelvis_ty/value	/jointset/hip_l/hip_flexion_l/value	/jointset/hip_l/hip_adduction_l/value	/jointset/hip_l/hip_rotation_l/value	/jointset/back/lumbar_extension/value	/jointset/patellofemoral_l/patellar_flexion_l/value	/jointset/knee_l/knee_flexion_l/value	/jointset/knee_l/knee_adduction_l/value	/jointset/knee_l/knee_rotation_l/value	/jointset/ankle_l/ankle_angle_l/value	/jointset/subtalar_l/subtalar_angle_l/value	/jointset/ground_pelvis/pelvis_tilt/speed	/jointset/ground_pelvis/pelvis_tx/speed	/jointset/ground_pelvis/pelvis_ty/speed	/jointset/hip_l/hip_flexion_l/speed	/jointset/hip_l/hip_adduction_l/speed	/jointset/hip_l/hip_rotation_l/speed	/jointset/back/lumbar_extension/speed	/jointset/patellofemoral_l/patellar_flexion_l/speed	/jointset/knee_l/knee_flexion_l/speed	/jointset/knee_l/knee_adduction_l/speed	/jointset/knee_l/knee_rotation_l/speed	/jointset/ankle_l/ankle_angle_l/speed	/jointset/subtalar_l/subtalar_angle_l/speed	/forceset/tau_hip_flexion_l	/forceset/tau_hip_adduction_l	/forceset/tau_hip_rotation_l	/forceset/tau_knee_flexion_l	/forceset/tau_ankle_angle_l	/forceset/tau_subtalar_angle_l	/forceset/tau_lumbar_extension	lambda_cid13_p0	lambda_cid13_p1	lambda_cid13_p2	lambda_cid13_p3	lambda_cid13_p4	lambda_cid13_p5	lambda_cid14_p0	/jointset/ground_pelvis/pelvis_tilt/accel	/jointset/ground_pelvis/pelvis_tx/accel	/jointset/ground_pelvis/pelvis_ty/accel	/jointset/hip_l/hip_flexion_l/accel	/jointset/hip_l/hip_adduction_l/accel	/jointset/hip_l/hip_rotation_l/accel	/jointset/back/lumbar_extension/accel	/jointset/patellofemoral_l/patellar_flexion_l/accel	/jointset/knee_l/knee_flexion_l/accel	/jointset/knee_l/knee_adduction_l/accel	/jointset/knee_l/knee_rotation_l/accel	/jointset/ankle_l/ankle_angle_l/accel	/jointset/subtalar_l/subtalar_angle_l/accel	gamma_cid13_p0	gamma_cid13_p1	gamma_cid13_p2	gamma_cid13_p3	gamma_cid13_p4	gamma_cid13_p5	gamma_cid14_p0
1	-0.6055868218922175	-0.09347783684718484	0.5302923310381575	2.090214898384651	-0.2623798506060556	0.2533615956285057	-0.4363222889172082	1.497286070487611	1.497286070487719	-0.1744832263385033	0.1745310863336439	0.2294077286363214	0.03830172312358858	-0.01031814103886305	0.0007895341414871393	-0.003339689932476377	0.01616239760937659	0.001027242854537991	0.00308304490241597	1.802286006227915e-05	0.007669708746800768	0.00766970874679931	1.160554310705143e-05	-1.386330675468157e-06	0.002261810657149872	0.001790099464401596	-0.4304414333195851	-0.009705337222768421	-0.007873397806573555	-0.3180658969062959	0.07117672496960542	0.007500148692865273	0.3515753232125499	-25.05169226004421	2.461680859035531	-2.317057266668029	16.60845641304083	-748.4822422591376	-46.69647284449636	-0.03739132361954921	1.435879379706606	0.02167837393305491	2.115867980554836	-6.902406643200734	-0.808567054978297	-2.296541374525689	-0.01523503515540935	-5.801591119212937	-5.801591119212939	-0.07667979319899579	0.02443027712290891	-0.6188031809627926	-1.096192699489814	3.142139676050327e-10	2.178650478190708e-09	-7.566402596735147e-09	-6.018577872373728e-10	1.526232362546952e-09	-6.059172730649671e-09	1.579338681412152e-09
1.01	-0.6056187538277229	-0.09346889226586975	0.5303646231643298	2.090032094041834	-0.2624090048098023	0.2532757767713683	-0.4363222461248051	1.497072905238416	1.497072905238501	-0.1744838223330822	0.1745310649144193	0.229399643090349	0.03826614883653557	0.003936965415469436	0.001001454493588775	0.0177950266510097	-0.05271956048608385	-0.006853577059147758	-0.02024259248472939	-1.216618715963743e-05	-0.05029749594397998	-0.05029749594398077	-0.0001299721740090045	-2.777809735991365e-06	-0.003883129267810113	-0.008900014046034466	-0.4303522315371012	-0.009652416506590501	-0.00789712092629013	-0.3179793865799493	0.07119225027592845	0.007532230250863475	0.3515183449563653	-25.0353522938561	2.441947894866328	-2.310554350395511	16.56152239390152	-748.3516044574216	-46.70952815729012	-0.03740771138745307	1.421108110827583	0.02126073166145172	2.111808304936362	-6.880534655439762	-0.7771695716084241	-2.3499483308141	0.002683889535075676	-5.793493785072766	-5.793493785072696	0.01722326498586485	-0.01241730628119659	-0.612969717239577	-1.054684232945012	-1.488336277692436e-09	-3.085124478060762e-09	4.503261812525806e-08	4.992627362512389e-09	-9.463943972908387e-09	5.704343204033392e-08	-9.69926170122397e-09
1.02	-0.60550797833218	-0.09345776610787138	0.5306481694178741	2.089160581265508	-0.2625168332350961	0.2529568268583735	-0.4363225862770317	1.496280226214101	1.496280226214173	-0.1744858100996108	0.1745310308912458	0.2293299820813316	0.03812382070315303	0.01822334517105829	0.001225849478142995	0.03891113554213405	-0.1215792890903926	-0.01470760145462478	-0.04354316627207527	-5.856607273407294e-05	-0.10823304627724	-0.1082330462772397	-0.0002667488529754636	-3.907123222178362e-06	-0.01005328195184385	-0.01956066980144805	-0.4302630297546516	-0.009599495790401699	-0.00792084404611481	-0.3178928762535932	0.07120777558226379	0.007564311808879186	0.3514613667001427	-25.02357679521712	2.424337698872498	-2.30590163415452	16.54459501981121	-748.2830511593404	-46.65798510245263	-0.03741165666945753	1.442134039957782	0.02417330042363381	2.112146442082508	-6.897960744970415	-0.8032079513365963	-2.291528654565836	-0.0184772028256619	-5.795260247708788	-5.795260247708701	-0.07571958556908899	0.02448271023785972	-0.6238457327774206	-1.090301148485342	-3.393363647654824e-09	-8.508986285025851e-09	9.703856444240542e-08	1.069699810987221e-08	-2.033948326159423e-08	1.186966830446989e-07	-2.081416391104699e-08
1.03	-0.6052541787936649	-0.09344429384640789	0.5311427079419283	2.087600764706199	-0.2627029733472501	0.252405085304424	-0.4363234024574716	1.494908436687595	1.494908436687603	-0.1744891328216675	0.1745309931472769	0.2291983782405897	0.03787513312706053	0.03254169424766867	0.001474556848146571	0.0599859659080456	-0.1903619799106379	-0.02250596594286975	-0.06679319799590996	-0.0001000619694992798	-0.1661112772959823	-0.1661112772959989	-0.0003943733628624259	-3.701811698750322e-06	-0.01628309865173264	-0.03016125924022247	-0.4298745253086322	-0.009502135796649384	-0.008000037940872893	-0.3177193779530452	0.0713796886615814	0.007708952008905035	0.3512338608462504	-24.93657707487448	2.335551007021041	-2.279483040636229	16.4255418249498	-747.9365258883846	-46.69235993155613	-0.03745192932333569	1.427455448233692	0.0261158755742794	2.103554521135478	-6.865117219225806	-0.7660028860123909	-2.33997152555641	0.003705424441372771	-5.782060816890112	-5.782060816892822	0.01921355989126226	-0.01225700020304893	-0.6248880520550154	-1.04261578253079	-5.299436702562773e-09	-1.393448163128394e-08	1.490384589799115e-07	1.64024901388403e-08	-3.121385278449671e-08	1.803351447249146e-07	-3.192739573135152e-08
1.04	-0.6048570417430358	-0.09342815522718761	0.5318476754070985	2.085353782444949	-0.2629666675419758	0.2516211972143967	-0.4363244953553309	1.492958273593315	1.492958273593265	-0.1744936323000796	0.1745309481680624	0.2290040085501572	0.0375209040683885	0.0468908475931328	0.001759121029498708	0.08099692376556637	-0.2590124294778607	-0.03021841796887452	-0.08997247349030418	-0.0001139095645123591	-0.2239077598320439	-0.2239077598320795	-0.0005021001291604555	-5.354172679782587e-06	-0.02260645189003137	-0.04066896631728537	-0.4294860208626374	-0.009404775802889509	-0.008079231835720683	-0.317545879652488	0.07155160174090919	0.007853592208943506	0.3510063549923315	-24.85428684342688	2.248883913223563	-2.254881527839531	16.33694913033762	-747.6532599920513	-46.66312837414128	-0.03747986188756688	1.448294893728445	0.03134466269340589	2.09937194040437	-6.871512494365948	-0.7860254588885967	-2.277377408677802	-0.01294754247478515	-5.778910551172643	-5.778910551172951	-0.07174003685129092	0.0241111757370442	-0.6425530404592891	-1.071724676143053	-7.342970653445688e-09	-1.924117642233896e-08	1.996328575103408e-07	2.205008877998122e-08	-4.172569851229094e-08	2.394048163982865e-07	-4.268685588413648e-08
1.05	-0.6043161736531061	-0.09340894533601936	0.532762362862827	2.082421059799407	-0.2633069710143758	0.250605971506353	-0.4363256220688376	1.490430666681898	1.490430666681898	-0.1744991170741154	0.1745309038482104	0.2287458470363977	0.03706215677489793	0.06129541104227349	0.002093265811492084	0.1019230137694121	-0.327499467385883	-0.03781831526393	-0.1130529839772127	-0.0001092448564656369	-0.2815894958619665	-0.281589495861971	-0.0005888363408460238	-3.009457067713942e-06	-0.02905025306849325	-0.05105412092248247	-0.4287839292768752	-0.009243836417891987	-0.008213267691801905	-0.3172840954303792	0.07189783190941344	0.008091482814108562	0.3505929753363347	-24.69092898052048	2.099741888464741	-2.211431004046694	16.13935232687837	-747.0781411246708	-46.70173386067255	-0.03754277671975408	1.438433704337408	0.03601627339246206	2.086583937516802	-6.832405317397862	-0.7434119973752074	-2.32047398610603	0.007501720723546905	-5.759175344865836	-5.759175344861166	0.02373586722935432	-0.01169146980880208	-0.6489482815346574	-1.017981566262755	-9.390800257327819e-09	-2.454415869604387e-08	2.501833342905489e-07	2.769587825275255e-08	-5.222621537148804e-08	2.983942133839444e-07	-5.343526067231146e-08
1.06	-0.6036308806019103	-0.09338608061954359	0.5338857825000214	2.078804445599121	-0.2637225614862374	0.249360523469969	-0.4363266364865623	1.48732696836699	1.487326968367027	-0.1745052939541427	0.1745308854576357	0.2284225165858552	0.03650034379264409	0.07577583984464673	0.002490086091007534	0.1227433600589558	-0.3957907404290156	-0.04527581786143394	-0.1360169391604618	-9.14504172379362e-05	-0.3391260405304322	-0.3391260405304075	-0.0006405213302721345	-1.683127391190491e-07	-0.03564023924674927	-0.06128210406986419	-0.4280818376910748	-0.009082897032885763	-0.008347303547920477	-0.3170223112082701	0.07224406207791549	0.008329373419284074	0.3501795956803826	-24.53257010469203	1.952705269821796	-2.169721211492316	15.97311737963541	-746.5686313465688	-46.67876799958703	-0.03759359227076959	1.463467964374881	0.04387976219786802	2.078223197543965	-6.832359521388027	-0.7575465193782998	-2.254066347945979	-0.01032159623791417	-5.749872278881281	-5.749872278881957	-0.064729792399363	0.0242104614803725	-0.6717900404180165	-1.040290384579959	-1.180516170630057e-08	-2.976879682938357e-08	2.982219157063303e-07	3.367759200060378e-08	-6.224568147236555e-08	3.523908837496702e-07	-6.350702898722273e-08
